<svg xmlns="http://www.w3.org/2000/svg" viewBox="40 10 80 88">
<!-- SVG created with Arrow, by QuiverAI (https://quiver.ai) -->
  <style type="text/css">@keyframes money-scan{from{transform:translateY(-9px)}to{transform:translateY(9px)}}@media(prefers-reduced-motion:reduce){#scanner-rail{animation:none!important}}.cls-0 {fill:#213D7D;}
.cls-1 {fill:none;stroke:#284A9B;stroke-width:0.3;stroke-miterlimit:10;}
.cls-2 {fill:#1C3672;}
.cls-3 {fill:#CEDDF5;}
.cls-4 {fill:#386ADA;}
.cls-5 {fill:#325DC8;}
.cls-6 {opacity:0.3;fill:#284A9B;enable-background:new    ;}
.cls-7 {fill:url(#SVGID_1_);}
.cls-8 {fill:#F3F6FC;}
.cls-9 {fill:#FFFFFF;}
.cls-10 {fill:none;}</style>















  <path class="cls-3" d="m90.5 15.3h-31.9c-2.3 0-4.6 2-4.6 4.4v67.2c0 2.7 1.9 4.8 4.6 4.8h42c2.6 0 4.6-1.9 4.6-4.5v-56.9l-14.7-15z"/>
  <path class="cls-4" d="m89.6 16.6h-30.9c-1.5 0-3.1 1.2-3.1 3.3v66.2c0 2.3 0.9 4.1 3.1 4.2h41.9c1.9 0 3.2-1.3 3.2-3.3v-56.2l-14.2-14.2z"/>

  <path class="cls-3" d="m89.6 16.3v11.5c0 1.5 1.3 2.9 2.9 2.9h11.4l-14.3-14.4z"/>
  <linearGradient id="SVGID_1_" x1="45.89" x2="113.4" y1="-3.793" y2="-3.793" gradientTransform="matrix(1 0 0 -1 0 61.85)" gradientUnits="userSpaceOnUse">
    <stop stop-color="#A9BFEE" offset=".075"/>
    <stop stop-color="#4E79DA" offset=".574"/>
    <stop stop-color="#254BBF" offset=".916"/>
  </linearGradient>
<g id="scanner-rail" style="animation:money-scan 3s ease-in-out infinite alternate">  <path class="cls-7" d="m112.2 60.4h-65.1c-0.6 0-1.3 0.5-1.3 1.2v6.6c0 0.8 0.6 1.1 1.2 1.1h65.2c0.6 0 1.2-0.4 1.2-1v-6.8c0-0.6-0.6-1.1-1.2-1.1z"/>
  <path class="cls-8" d="m45.9 63.2v3h67.5v-3h-67.5z"/>
</g>  <path class="cls-9" d="m68.2 22.9h2.6l0.5-1.1h-8.6l-0.5 1.3h1.6c1.7 0 2.8 0.5 3 1.5h-4.2l-0.8 1.6h5.1c-0.2 1.3-1.4 2-3.3 2h-1.2v1.6c1.6 1.9 3.3 3.8 4.8 6.5h2.2c-1.5-2.3-3-4.3-4.7-6.7 2.2 0 4.1-1.2 4.4-3.4h1.8l0.5-1.4h-2.3c-0.1-0.8-0.4-1.4-0.9-1.9z"/>
</svg>